<svg xmlns="http://www.w3.org/2000/svg" width="172.63" height="35" viewBox="0 0 172.63 35"><rect class="svg__rect" x="0" y="0" width="92.73" height="35" fill="#31C4F3"/><rect class="svg__rect" x="90.73" y="0" width="81.89999999999999" height="35" fill="#389AD5"/><path class="svg__text" d="M19.57 22L14.22 22L14.22 13.47L15.70 13.47L15.70 20.82L19.57 20.82L19.57 22ZM25.26 22L23.79 22L23.79 13.47L25.26 13.47L25.26 22ZM33.18 22L30.07 22L30.07 13.47L33.00 13.47Q34.44 13.47 35.20 14.05Q35.96 14.63 35.96 15.78L35.96 15.78Q35.96 16.36 35.64 16.83Q35.32 17.30 34.71 17.56L34.71 17.56Q35.40 17.75 35.78 18.26Q36.16 18.78 36.16 19.51L36.16 19.51Q36.16 20.71 35.39 21.36Q34.62 22 33.18 22L33.18 22ZM31.56 18.15L31.56 20.82L33.20 20.82Q33.90 20.82 34.29 20.47Q34.68 20.13 34.68 19.51L34.68 19.51Q34.68 18.18 33.32 18.15L33.32 18.15L31.56 18.15ZM31.56 14.66L31.56 17.06L33.01 17.06Q33.70 17.06 34.09 16.75Q34.48 16.43 34.48 15.86L34.48 15.86Q34.48 15.23 34.12 14.95Q33.76 14.66 33.00 14.66L33.00 14.66L31.56 14.66ZM42.11 22L40.63 22L40.63 13.47L43.63 13.47Q45.11 13.47 45.91 14.13Q46.71 14.79 46.71 16.05L46.71 16.05Q46.71 16.90 46.30 17.48Q45.89 18.06 45.15 18.37L45.15 18.37L47.06 21.92L47.06 22L45.48 22L43.77 18.71L42.11 18.71L42.11 22ZM42.11 14.66L42.11 17.52L43.64 17.52Q44.39 17.52 44.81 17.15Q45.23 16.77 45.23 16.11L45.23 16.11Q45.23 15.43 44.84 15.05Q44.45 14.68 43.68 14.66L43.68 14.66L42.11 14.66ZM51.89 22L50.35 22L53.57 13.47L54.90 13.47L58.13 22L56.58 22L55.88 20.01L52.58 20.01L51.89 22ZM54.23 15.28L52.99 18.82L55.47 18.82L54.23 15.28ZM63.56 22L62.08 22L62.08 13.47L65.08 13.47Q66.56 13.47 67.36 14.13Q68.16 14.79 68.16 16.05L68.16 16.05Q68.16 16.90 67.75 17.48Q67.34 18.06 66.60 18.37L66.60 18.37L68.52 21.92L68.52 22L66.93 22L65.22 18.71L63.56 18.71L63.56 22ZM63.56 14.66L63.56 17.52L65.09 17.52Q65.84 17.52 66.26 17.15Q66.68 16.77 66.68 16.11L66.68 16.11Q66.68 15.43 66.29 15.05Q65.90 14.68 65.13 14.66L65.13 14.66L63.56 14.66ZM74.60 18.86L71.73 13.47L73.38 13.47L75.34 17.51L77.31 13.47L78.95 13.47L76.09 18.86L76.09 22L74.60 22L74.60 18.86Z" fill="#FFFFFF"/><path class="svg__text" d="M107.30 22L104.92 22L104.92 13.60L108.76 13.60Q109.90 13.60 110.74 13.98Q111.58 14.35 112.04 15.06Q112.49 15.76 112.49 16.71L112.49 16.71Q112.49 17.62 112.07 18.30Q111.64 18.98 110.85 19.36L110.85 19.36L112.66 22L110.12 22L108.59 19.77L107.30 19.77L107.30 22ZM107.30 15.47L107.30 17.93L108.62 17.93Q109.35 17.93 109.72 17.61Q110.09 17.29 110.09 16.71L110.09 16.71Q110.09 16.12 109.72 15.79Q109.35 15.47 108.62 15.47L108.62 15.47L107.30 15.47ZM124.03 22L117.28 22L117.28 13.60L123.87 13.60L123.87 15.44L119.64 15.44L119.64 16.85L123.37 16.85L123.37 18.63L119.64 18.63L119.64 20.17L124.03 20.17L124.03 22ZM130.25 22L127.82 22L131.53 13.60L133.87 13.60L137.59 22L135.12 22L134.46 20.37L130.91 20.37L130.25 22ZM132.69 15.93L131.60 18.61L133.76 18.61L132.69 15.93ZM141.32 17.80L141.32 17.80Q141.32 16.54 141.91 15.54Q142.51 14.55 143.56 13.99Q144.62 13.43 145.93 13.43L145.93 13.43Q147.09 13.43 148.01 13.84Q148.93 14.25 149.55 15.02L149.55 15.02L148.04 16.39Q147.22 15.40 146.06 15.40L146.06 15.40Q145.37 15.40 144.84 15.70Q144.30 16 144.01 16.54Q143.71 17.09 143.71 17.80L143.71 17.80Q143.71 18.51 144.01 19.05Q144.30 19.60 144.84 19.90Q145.37 20.20 146.06 20.20L146.06 20.20Q147.22 20.20 148.04 19.22L148.04 19.22L149.55 20.58Q148.94 21.35 148.01 21.76Q147.09 22.17 145.93 22.17L145.93 22.17Q144.62 22.17 143.56 21.61Q142.51 21.05 141.91 20.05Q141.32 19.06 141.32 17.80ZM155.88 15.48L153.29 15.48L153.29 13.60L160.82 13.60L160.82 15.48L158.25 15.48L158.25 22L155.88 22L155.88 15.48Z" fill="#FFFFFF" x="103.73"/></svg>